<?xml version="1.0" encoding="UTF-8" standalone="no"?>
<!-- Created with Inkscape (http://www.inkscape.org/) -->

<svg
   width="16"
   height="16"
   viewBox="0 0 4.2333333 4.2333332"
   version="1.1"
   id="svg1"
   inkscape:export-filename="bitmap.svg"
   inkscape:export-xdpi="1"
   inkscape:export-ydpi="1"
   sodipodi:docname="bitmap.svg"
   inkscape:version="1.4.4 (dcaf3e7d9e, 2026-05-05)"
   xmlns:inkscape="http://www.inkscape.org/namespaces/inkscape"
   xmlns:sodipodi="http://sodipodi.sourceforge.net/DTD/sodipodi-0.dtd"
   xmlns="http://www.w3.org/2000/svg"
   xmlns:svg="http://www.w3.org/2000/svg">
  <sodipodi:namedview
     id="namedview1"
     pagecolor="#ffffff"
     bordercolor="#000000"
     borderopacity="0.25"
     inkscape:showpageshadow="2"
     inkscape:pageopacity="0.0"
     inkscape:pagecheckerboard="0"
     inkscape:deskcolor="#d1d1d1"
     inkscape:document-units="mm"
     inkscape:zoom="16.075763"
     inkscape:cx="10.04618"
     inkscape:cy="15.084821"
     inkscape:window-width="1138"
     inkscape:window-height="991"
     inkscape:window-x="26"
     inkscape:window-y="23"
     inkscape:window-maximized="0"
     inkscape:current-layer="layer1">
    <inkscape:page
       x="0"
       y="0"
       width="4.2333331"
       height="4.2333331"
       id="page2"
       margin="0"
       bleed="0" />
  </sodipodi:namedview>
  <defs
     id="defs1" />
  <g
     inkscape:label="Capa 1"
     inkscape:groupmode="layer"
     id="layer1"
     transform="translate(-1.7106927,381.05725)">
    <path
       style="fill:#000000;stroke-width:0.00222607"
       id="path3"
       d="m 3.2429887,-378.8614 c -0.00455,0.0152 -0.010439,0.0305 -0.020497,0.0431 -0.00106,0.001 -0.00299,0.001 -0.00424,0.002 -0.00331,0.002 -0.00629,0.006 -0.00942,0.008 -0.027267,0.0122 -0.054215,0.0259 -0.083045,0.0341 -0.00717,0.002 -0.014557,0.003 -0.021838,0.005 -0.058234,0.01 -0.118072,0.0129 -0.1768765,0.006 -0.00945,-0.001 -0.018706,-0.004 -0.02804,-0.005 -0.060729,-0.0172 -0.1168989,-0.0488 -0.1691656,-0.0837 -0.013303,-0.009 -0.026013,-0.0187 -0.039022,-0.028 -0.010439,-0.01 -0.021838,-0.0184 -0.031329,-0.029 -0.018007,-0.0201 -0.028178,-0.0407 -0.038423,-0.0655 -0.016135,-0.039 -0.024378,-0.0667 -0.0338,-0.10856 -0.00493,-0.0219 -0.00843,-0.0441 -0.01266,-0.0661 -0.020097,-0.13572 -0.02371,-0.27316 -0.023442,-0.41013 0.00106,-0.0187 0.00131,-0.0373 0.00324,-0.0559 0.00562,-0.052 0.015549,-0.10045 0.027772,-0.15146 0.012897,-0.0537 0.030985,-0.11773 0.048475,-0.17025 0.00864,-0.026 0.0186,-0.0515 0.027916,-0.0772 0.023467,-0.0562 0.047864,-0.11304 0.087275,-0.16022 0.013571,-0.0162 0.037518,-0.0377 0.054845,-0.0505 0.00757,-0.006 0.015923,-0.01 0.023897,-0.015 0.038311,-0.0204 0.080891,-0.0251 0.1234885,-0.0271 0.047158,-0.002 0.094811,5.3e-4 0.1408393,0.0115 0.028009,0.007 0.050378,0.0145 0.077976,0.0233 0.066996,0.025 0.1321614,0.055 0.1919717,0.0945 0.00977,0.006 0.018893,0.0138 0.028346,0.0207 0.033063,0.0254 0.065123,0.0525 0.092226,0.0844 0.031379,0.0369 0.056493,0.0794 0.082592,0.11998 0.070718,0.10949 0.1311282,0.22523 0.185298,0.34366 0.03325,0.075 0.057666,0.15358 0.074591,0.23378 0.010894,0.0516 0.014426,0.0799 0.022506,0.13288 0.019405,0.14231 0.041892,0.28432 0.056892,0.4272 0.00312,0.03 0.00562,0.06 0.0084,0.0899 0.00611,0.10622 0.0186,0.21284 0.014825,0.31943 -0.00131,0.0381 -0.00913,0.10782 -0.012816,0.14421 -0.00851,0.0731 -0.017851,0.14622 -0.031329,0.21862 -0.00683,0.0367 -0.012685,0.0651 -0.023872,0.10015 -0.00381,0.012 -0.0087,0.0235 -0.013034,0.0353 -0.013758,0.034 -0.035353,0.0622 -0.062308,0.0867 -0.014775,0.0134 -0.026861,0.0209 -0.043384,0.0323 -0.033063,0.0224 -0.068596,0.0415 -0.1055024,0.0569 -0.00854,0.004 -0.038005,0.0143 -0.046347,0.0174 -0.054764,0.0203 -0.1123497,0.0274 -0.1700623,0.0334 -0.070111,0.007 -0.1406765,0.007 -0.2110578,0.007 -0.082078,2e-4 -0.164154,-2e-5 -0.246232,-1.5e-4 -0.047146,-6e-5 -0.094297,-1e-4 -0.1414446,-1.2e-4 -0.035128,-1e-5 -0.019804,10e-4 -0.045954,-0.002 -0.013864,-0.003 -0.064111,-0.005 -0.071264,-0.0192 2.676e-4,-6.3e-4 0.00131,-10e-4 8.111e-4,-0.002 -0.00187,-0.003 -0.00449,-0.006 -0.00685,-0.009 -0.00487,-0.006 -0.00988,-0.0117 -0.014719,-0.0176 -0.013889,-0.0169 -0.027073,-0.0342 -0.040189,-0.0517 -0.021165,-0.0331 -0.04616,-0.0632 -0.071757,-0.0929 -0.00187,-0.006 -0.011537,-0.0105 -0.01349,-0.0173 -2.677e-4,-0.001 0.00212,0.002 0.00293,0.003 0.00131,0.002 0.00268,0.005 0.00406,0.008 2.677e-4,7e-5 0.00106,5.3e-4 0.00106,2.4e-4 -8.111e-4,-0.009 -0.00698,-0.0367 -0.00787,-0.0409 -0.051516,-0.23972 -0.3904878,-0.16687 -0.3389757,0.0728 v 0 c 0.00559,0.0245 0.00822,0.0495 0.015655,0.0735 0.00428,0.0117 0.00806,0.0237 0.012872,0.0352 0.014317,0.0343 0.03731,0.0644 0.061421,0.0923 0.02066,0.0239 0.039954,0.0476 0.056949,0.0745 0.046194,0.0615 0.093628,0.12345 0.1573165,0.16792 0.014531,0.008 0.028621,0.0174 0.043607,0.0247 0.0556,0.0274 0.1175871,0.0369 0.1784706,0.044 0.015387,0.001 0.030755,0.002 0.046172,0.003 0.00985,5.4e-4 0.019723,0 0.029563,0 0.047015,4e-5 0.094032,6e-5 0.1410484,1.2e-4 0.082747,1.4e-4 0.1654949,2.7e-4 0.2482424,1.6e-4 0.081961,-2.7e-4 0.1641053,-1.5e-4 0.2457234,-0.009 0.036196,-0.004 0.059113,-0.006 0.095486,-0.0118 0.053959,-0.009 0.1068052,-0.0231 0.1584404,-0.0411 0.024085,-0.009 0.046397,-0.0169 0.070167,-0.0271 0.057809,-0.0249 0.1132919,-0.0557 0.1649964,-0.0915 0.041836,-0.031 0.055438,-0.0389 0.093031,-0.076 0.059875,-0.0591 0.105596,-0.12976 0.136176,-0.20804 0.00698,-0.0202 0.014719,-0.0401 0.020927,-0.0606 0.036944,-0.12163 0.049099,-0.24924 0.065487,-0.37471 0.00629,-0.0634 0.012604,-0.11626 0.014532,-0.18011 0.00356,-0.117 -0.00913,-0.23398 -0.016354,-0.35056 -0.00306,-0.0326 -0.0058,-0.0652 -0.00923,-0.0978 -0.015518,-0.14712 -0.038535,-0.29337 -0.058614,-0.4399 -0.010171,-0.0652 -0.01402,-0.0965 -0.027959,-0.16057 -0.022238,-0.10221 -0.05414,-0.20228 -0.096738,-0.29787 -0.010514,-0.0228 -0.020659,-0.0458 -0.031535,-0.0684 -0.052712,-0.10956 -0.1121013,-0.216 -0.1774754,-0.31849 -0.025663,-0.0397 -0.049773,-0.0785 -0.078332,-0.11623 -0.053117,-0.0702 -0.1164098,-0.13121 -0.1874306,-0.18312 -0.016672,-0.0116 -0.032982,-0.0238 -0.050022,-0.0348 -0.08298,-0.054 -0.1737017,-0.0947 -0.266629,-0.12811 -0.045879,-0.0143 -0.072915,-0.0238 -0.1205041,-0.0338 -0.073413,-0.0154 -0.1486837,-0.0199 -0.2235151,-0.0163 -0.037019,0.002 -0.051969,0.002 -0.088262,0.009 -0.074762,0.0129 -0.1463364,0.0387 -0.2108463,0.0789 -0.050178,0.0359 -0.066707,0.0445 -0.1108462,0.0897 -0.01991,0.0203 -0.039039,0.0416 -0.056388,0.0643 -0.055735,0.0726 -0.094672,0.1557 -0.1283853,0.24027 -0.011052,0.031 -0.02288,0.0618 -0.033178,0.0931 -0.043115,0.13092 -0.077508,0.26668 -0.090834,0.40412 -0.00241,0.0246 -0.00241,0.0495 -0.00377,0.0742 -1.337e-4,0.15985 0.00457,0.32025 0.030114,0.47835 0.015307,0.0748 0.020686,0.11368 0.04639,0.18644 0.022131,0.0626 0.050022,0.12162 0.088777,0.17585 0.043609,0.061 0.066525,0.0755 0.1210849,0.12239 0.019054,0.0134 0.037738,0.0272 0.057183,0.0399 0.090818,0.0595 0.1896169,0.10866 0.2964596,0.13093 0.020179,0.003 0.04027,0.007 0.060561,0.009 0.018145,0.002 0.03637,0.002 0.05459,0.003 0.077315,0.002 0.1546967,-0.002 0.2303711,-0.0194 0.017396,-0.005 0.034985,-0.009 0.052187,-0.0141 0.056118,-0.0175 0.1230467,-0.0482 0.1706169,-0.0823 0.015175,-0.0109 0.028902,-0.0236 0.043352,-0.0354 0.010944,-0.0116 0.022637,-0.0225 0.032857,-0.0348 0.034105,-0.0409 0.062999,-0.089 0.078571,-0.14022 0.086082,-0.22955 -0.2385542,-0.35129 -0.3246361,-0.12174 z" />
    <circle
       id="path4"
       style="fill:#000000;stroke:#000000;stroke-width:0.264583"
       cx="297.34198"
       cy="-379.50229"
       r="1.4226875" />
    <path
       style="fill:#000000;stroke-width:0.192617"
       id="path5"
       d="m 10.303809,3.600206 c 0.217385,-0.4608324 0.47565,-0.8999127 0.768036,-1.3167631 0.06147,-0.057465 0.112177,-0.1292444 0.184422,-0.172394 0.419012,-0.2502611 0.847583,0.1583873 1.093273,0.4540586 0.101775,0.1224797 0.185613,0.2588163 0.278419,0.3882245 0.414311,0.6635928 0.6402,1.4130364 0.776736,2.1772481 0.03296,0.2383377 0.02218,0.127182 0.03595,0.3330974 4.7e-5,7.144e-4 10e-4,6.35e-4 10e-4,-6.67e-5 v 0 C 13.427874,5.2576121 13.438659,5.368804 13.405686,5.1304041 13.269122,4.3660464 13.043181,3.6164625 12.628779,2.9527492 12.535941,2.8233031 12.452079,2.6869223 12.350265,2.5644107 12.104108,2.2682149 11.675149,1.8596575 11.255592,2.1103184 c -0.0723,0.043194 -0.123039,0.1150335 -0.184558,0.1725503 -0.292412,0.4168925 -0.550706,0.8560122 -0.768112,1.3168902 -3.17e-4,6.35e-4 5.83e-4,0.00108 9e-4,4.498e-4 z" />
    <path
       style="fill:#000000;stroke-width:0.051546"
       id="path11"
       d="m 4.8285703,-378.61295 c 0.050503,-0.0422 0.074318,-0.10337 0.099912,-0.16205 0.027441,-0.0616 0.035316,-0.12773 0.039109,-0.19432 1.703e-4,-0.0857 -0.015443,-0.16426 -0.042136,-0.24524 -0.019305,-0.0666 -0.052961,-0.1267 -0.092676,-0.183 -0.025295,-0.0343 -0.058558,-0.0607 -0.090294,-0.0886 -0.1423805,-0.12492 -0.3190535,0.0764 -0.1766736,0.20136 v 0 c 0.016747,0.0147 0.03433,0.0284 0.049954,0.0442 0.025588,0.0332 0.043814,0.0706 0.055613,0.11081 8.112e-4,0.002 0.013621,0.0394 0.015137,0.0458 0.00767,0.0328 0.010145,0.0666 0.013602,0.1 -0.00181,0.0347 -0.00306,0.0695 -0.01724,0.10199 -0.00786,0.0181 -0.015243,0.0368 -0.023454,0.0547 -0.00168,0.004 -0.00468,0.007 -0.00599,0.0108 -3.475e-4,0.001 0.00187,-10e-4 0.00281,-0.002 0.00387,-0.003 0.00773,-0.006 0.011593,-0.009 -0.1515333,0.11366 0.00919,0.32795 0.160726,0.21431 z" />
    <path
       style="fill:#000000;stroke-width:0.051546"
       id="path12"
       d="m 5.2959706,-377.9691 c 0.050191,-0.0448 0.07543,-0.10456 0.1004278,-0.16521 0.029725,-0.0625 0.053504,-0.12729 0.072445,-0.19383 0.027828,-0.083 0.036245,-0.17007 0.041624,-0.25687 0.00243,-0.0643 0.00399,-0.12873 0.010557,-0.19278 0.00699,-0.0615 0.011206,-0.12309 0.013471,-0.18486 0.0015,-0.0595 0.00256,-0.11895 9.17e-5,-0.17839 -0.00393,-0.0584 -0.00678,-0.11677 -0.012885,-0.17498 -0.00393,-0.0591 -0.019998,-0.11618 -0.037861,-0.17238 -0.017733,-0.0549 -0.030748,-0.11118 -0.045386,-0.16697 -0.018001,-0.0595 -0.044276,-0.11577 -0.071935,-0.17129 -0.026088,-0.0541 -0.056474,-0.10565 -0.086677,-0.15747 -0.028689,-0.0481 -0.061827,-0.0932 -0.096541,-0.13705 -0.034417,-0.048 -0.082671,-0.08 -0.1321271,-0.11045 -0.028421,-0.0195 -0.06169,-0.0305 -0.090713,-0.0488 -0.1632293,-0.0961 -0.2991344,0.13474 -0.1359051,0.23084 v 0 c 0.028346,0.0163 0.058177,0.0293 0.086266,0.0461 0.023642,0.0145 0.046871,0.025 0.062769,0.049 0.02688,0.0337 0.052474,0.0685 0.074874,0.10537 0.027285,0.0467 0.054983,0.093 0.07827,0.1419 0.019517,0.0392 0.038604,0.0784 0.052649,0.12001 0.015892,0.0602 0.029956,0.121 0.049267,0.1803 0.012467,0.0388 0.02459,0.078 0.026649,0.119 0.00562,0.0528 0.00792,0.10592 0.01168,0.15894 0.00268,0.0522 6.24e-4,0.10445 -1.909e-4,0.15663 -0.002,0.0563 -0.00599,0.11245 -0.012367,0.1684 -0.00641,0.0674 -0.00937,0.13501 -0.011343,0.20265 -0.00406,0.0681 -0.00954,0.13649 -0.032333,0.20143 -0.015118,0.0566 -0.037531,0.11046 -0.062065,0.16361 -0.0053,0.0129 -0.014395,0.0423 -0.023092,0.0558 -0.00237,0.004 -0.011412,0.008 -0.00782,0.0107 0.00374,0.002 0.00724,-0.006 0.010863,-0.008 -0.14791,0.11833 0.01943,0.3275 0.1673406,0.20918 z" />
  </g>
</svg>
